# xmcd
#
# Track frame offsets: 
#        150
#        19190
#        44722
#        64627
#        86325
#        107772
#        123405
#        148495
#        168695
#        187897
#        205157
#        224291
#        258824
#
# Disc length: 4007 seconds
#
# Revision: 4
# Processed by: cddbd v1.5.2PL0 Copyright (c) Steve Scherf et al.
# Submitted via: ExactAudioCopyFreeDBPlugin 1.0
#
DISCID=bf0fa50d
DTITLE=Van Hunt - Van Hunt (debut album)
DYEAR=2004
DGENRE=Rhythm and Blues
TTITLE0=Dust
TTITLE1=Seconds of Pleasure
TTITLE2=Hello, Goodbye
TTITLE3=Down Here in Hell (With You)
TTITLE4=What Can I Say (For Millicent)
TTITLE5=Anything (To Get Your Attention)
TTITLE6=Highlights
TTITLE7=Precious
TTITLE8=Her December
TTITLE9=Hold My Hand
TTITLE10=Who Will Love Me in Winter
TTITLE11=Out of the Sky
TTITLE12=Data Only
EXTD=YEAR: 2004
EXTT0=
EXTT1=
EXTT2=
EXTT3=
EXTT4=
EXTT5=
EXTT6=
EXTT7=
EXTT8=
EXTT9=
EXTT10=
EXTT11=
EXTT12=
PLAYORDER=
